# xmcd
#
# Track frame offsets: 
#        150
#        12299
#        21605
#        32460
#        45083
#        55094
#        66786
#        76918
#        87091
#        97021
#        106855
#        120279
#
# Disc length: 1764 seconds
#
# Revision: 0
# Processed by: cddbd v1.5.2PL0 Copyright (c) Steve Scherf et al.
# Submitted via: ExactAudioCopy v1.0b4
#
DISCID=8206e20c
DTITLE=Various Artist - Arkansas Blues  - Archive Series Vol 7 (LP)
DYEAR=1900
DGENRE=Blues
TTITLE0=Baby Face Turner - Baby Face Turner - Blues Serenade
TTITLE1=Baby Face Turner - Baby Face Turner - Gonna Let You Go
TTITLE2=Drifting Slim - Drifting Slim - My Little Machine
TTITLE3=Drifting Slim - Drifting Slim - Good Morning Baby
TTITLE4=Sunny Blair - Sunny Blair - Step Back Baby
TTITLE5=Sunny Blair - Sunny Blair - Send My Baby Back
TTITLE6=Robert Dudlow Taylor - Robert Dudlow Taylor - Lonesome
TTITLE7=Robert Dudlow Taylor - Robert Dudlow Taylor - Old Helena Blues
TTITLE8=Robert Dudlow Taylor - Robert Dudlow Taylor - Old Helena Blues
TTITLE9=Sunny Blair - Sunny Blair - My Baby's Gone
TTITLE10=Junior Brooks - Junior Brooks - She's The Little Girl For Me
TTITLE11=Baby Face Turner - Baby Face Turner - Best Days
EXTD=
EXTT0=
EXTT1=
EXTT2=
EXTT3=
EXTT4=
EXTT5=
EXTT6=
EXTT7=
EXTT8=
EXTT9=
EXTT10=
EXTT11=
PLAYORDER=
